# xmcd
# 
# Track frame offsets:
#     150
#     18429
#     36641
#     59483
# 
# Disc length: 1129
# 
# Revision: 0
# Processed by: cddbd v1.5.2PL0 Copyright (c) Steve Scherf et al.
# Submitted via: fre:ac v1.0.27
# 
DISCID=34046704
DTITLE=Terry Lovique - Wake Up
DYEAR=2000
DGENRE=Hip Hop
TTITLE0=Wake Up (Radio Edit I)
TTITLE1=Wake Up (Radio Edit II)
TTITLE2=Wake Up (Extended Version I)
TTITLE3=Wake Up (Extended Version II)
EXTD=
EXTT0=
EXTT1=
EXTT2=
EXTT3=
PLAYORDER=
